<?xml version="1.0" encoding="UTF-8"?>
<svg width="40px" height="40px" viewBox="0 0 40 40" version="1.1" xmlns="http://www.w3.org/2000/svg" xmlns:xlink="http://www.w3.org/1999/xlink">
    <!-- Generator: sketchtool 56.2 (101010) - https://sketch.com -->
    <title>54BA2538-0CDE-46FF-AC5A-E0EA16EAB5F5</title>
    <desc>Created with sketchtool.</desc>
    <g id="Mockup" stroke="none" stroke-width="1" fill="none" fill-rule="evenodd">
        <g id="Prueba-tecnica-listado" transform="translate(-258.000000, -214.000000)">
            <g id="Group" transform="translate(222.000000, 101.000000)">
                <g id="Pedido-1" transform="translate(28.000000, 111.000000)">
                    <g id="icon/estadopedido/entrega" transform="translate(8.000000, 2.000000)">
                        <g id="entrega-activo">
                            <path d="M20,40 C8.96842105,40 0,31.0315789 0,20 C0,8.96842105 8.96842105,0 20,0 C31.0315789,0 40,8.96842105 40,20 C40,31.0105263 31.0315789,40 20,40 Z M20,1.26315789 C9.66315789,1.26315789 1.26315789,9.66315789 1.26315789,20 C1.26315789,30.3368421 9.66315789,38.7368421 20,38.7368421 C30.3368421,38.7368421 38.7368421,30.3368421 38.7368421,20 C38.7368421,9.66315789 30.3368421,1.26315789 20,1.26315789 Z" id="Shape" fill="#84DADE" fill-rule="nonzero"></path>
                            <path d="M27.0449286,23.921853 L27.0449286,23.921853 C27.961733,23.921853 28.7743551,24.2988922 29.3786126,24.9063444 C29.441122,24.9691843 29.5036314,25.0320242 29.5453043,25.094864 L30.8996744,25.094864 L30.8996744,21.4292044 L31.4414225,21.4292044 C31.5456048,21.4292044 31.6497871,21.4082578 31.733133,21.3873112 L31.733133,27.3152064 C31.6289507,27.6922457 31.2747308,27.9436052 30.8996744,27.9436052 L30.295417,27.9436052 C30.1703982,28.6138973 29.8370148,29.2004028 29.399449,29.6612286 C28.7951916,30.2686808 27.9825695,30.64572 27.0657651,30.64572 C26.1489607,30.64572 25.3363386,30.2686808 24.7320811,29.6612286 C24.2736789,29.2004028 23.961132,28.6138973 23.8361132,27.9436052 L16.4391685,27.9436052 C16.3141498,28.6138973 15.9807663,29.2213494 15.5223641,29.6821752 C14.9181067,30.2896274 14.1054846,30.6666667 13.1886802,30.6666667 C12.2718758,30.6666667 11.4592537,30.2896274 10.8549962,29.6821752 C10.396594,29.2213494 10.0632106,28.6138973 9.93819184,27.9436052 L6.20846481,27.9436052 C5.72922615,27.9436052 5.33333333,27.5456193 5.33333333,27.0638469 L5.33333333,25.9746224 C5.33333333,25.7232628 5.43751565,25.5137966 5.5833709,25.3462236 L5.5833709,25.3462236 C5.62504383,25.3043303 5.66671675,25.2624371 5.72922615,25.2205438 L5.72922615,21.7643505 C5.72922615,21.3454179 5.91675432,21.0102719 6.18762835,20.7170191 C6.60435763,20.27714 7.3127974,19.8372608 7.81287253,19.4602216 L9.89651891,16.0459215 C10.1048835,15.7107754 10.4174305,15.3546828 11.021688,15.3546828 L15.0847984,15.3546828 L15.0847984,9.86666667 C20.6481342,9.86666667 26.2114701,9.86666667 31.7748059,9.86666667 L31.7748059,16.3182276 L30.9413474,16.3182276 L30.9413474,10.7045317 L15.9182569,10.7045317 L15.9182569,25.094864 L24.5653894,25.094864 C24.6070624,25.0320242 24.6695718,24.9691843 24.7320811,24.9063444 C25.3155021,24.2988922 26.1281242,23.921853 27.0449286,23.921853 L27.0449286,23.921853 Z M26.9824192,17.7216516 C26.7532181,17.7216516 26.56569,17.5331319 26.56569,17.302719 C26.56569,17.0723061 26.7532181,16.8837865 26.9824192,16.8837865 L32.6499374,16.8837865 C32.8791385,16.8837865 33.0666667,17.0723061 33.0666667,17.302719 C33.0666667,17.5331319 32.8791385,17.7216516 32.6499374,17.7216516 L26.9824192,17.7216516 Z M31.4414225,20.0257805 C31.6706236,20.0257805 31.8581518,20.2143001 31.8581518,20.444713 C31.8581518,20.6751259 31.6706236,20.8636455 31.4414225,20.8636455 L30.5871275,20.8636455 C30.3579264,20.8636455 30.1703982,20.6751259 30.1703982,20.444713 C30.1703982,20.2143001 30.3579264,20.0257805 30.5871275,20.0257805 L31.4414225,20.0257805 Z M27.9200601,19.3135952 C27.690859,19.3135952 27.5033308,19.1250755 27.5033308,18.8946626 C27.5033308,18.6642497 27.690859,18.4757301 27.9200601,18.4757301 L32.1915352,18.4757301 C32.4207363,18.4757301 32.6082645,18.6642497 32.6082645,18.8946626 C32.6082645,19.1250755 32.4207363,19.3135952 32.1915352,19.3135952 L27.9200601,19.3135952 Z M25.8572502,16.8837865 C26.0864513,16.8837865 26.2739795,17.0723061 26.2739795,17.302719 C26.2739795,17.5331319 26.0864513,17.7216516 25.8572502,17.7216516 L23.6694215,17.7216516 C23.4402204,17.7216516 23.2526922,17.5331319 23.2526922,17.302719 C23.2526922,17.0723061 23.4402204,16.8837865 23.6694215,16.8837865 L25.8572502,16.8837865 Z M14.3555222,27.3361531 C14.3555222,27.9854985 13.8346106,28.5510574 13.1678437,28.5510574 C12.5010769,28.5510574 11.9801653,28.0064451 11.9801653,27.3361531 C11.9801653,26.665861 12.5010769,26.1212487 13.1678437,26.1212487 C13.8346106,26.1212487 14.3555222,26.665861 14.3555222,27.3361531 Z M14.3763586,16.2344411 L14.3763586,19.4392749 C14.3138492,20.0467271 13.855447,20.4866062 13.272026,20.5703927 L7.72952667,20.5703927 C7.41697971,20.779859 7.06275983,21.0312185 6.7918858,21.3035247 C6.66686702,21.4501511 6.5626847,21.6177241 6.5626847,21.7852971 L6.5626847,22.4555891 L7.56283496,22.4555891 C7.68785374,22.4555891 7.7711996,22.4974824 7.85454545,22.5812689 C8.02123717,22.7488419 8.02123717,23.0002014 7.85454545,23.1677744 C7.7711996,23.2515609 7.66701728,23.2934542 7.56283496,23.2934542 L6.5626847,23.2934542 L6.5626847,25.094864 L10.709141,25.094864 C10.7508139,25.0529708 10.7924869,24.9901309 10.8341598,24.9482377 C11.4384172,24.3407855 12.2510393,23.9637462 13.1678437,23.9637462 L13.1678437,23.9637462 L13.1678437,23.9637462 C13.8762835,23.9637462 14.5222139,24.1941591 15.0639619,24.5711984 L15.0639619,16.2344411 L14.3763586,16.2344411 Z M10.6883045,27.3361531 C10.6883045,28.0273917 10.9591786,28.6767372 11.4175808,29.1166163 C11.8551465,29.5774421 12.4802404,29.8497482 13.1678437,29.8497482 C13.855447,29.8497482 14.4597045,29.5564955 14.9181067,29.1166163 C15.3765089,28.6557905 15.6473829,28.0273917 15.6473829,27.3361531 C15.6473829,26.6449144 15.3765089,25.995569 14.9181067,25.5556898 C14.4805409,25.094864 13.855447,24.8225579 13.1678437,24.8225579 C12.4802404,24.8225579 11.875983,25.1158107 11.4175808,25.5556898 C10.980015,25.995569 10.6883045,26.6239678 10.6883045,27.3361531 Z M13.5429001,16.2344411 L11.0008515,16.2344411 C10.7508139,16.2344411 10.6466316,16.4229607 10.5841222,16.5276939 L8.60465815,19.7325277 L13.1886802,19.7325277 C13.3553719,19.6696878 13.4803907,19.5859013 13.5220636,19.3973817 L13.5429001,16.2344411 L13.5429001,16.2344411 Z M27.8783872,26.4354481 C28.0867518,26.6449144 28.2117706,26.9591138 28.2117706,27.2733132 C28.2117706,27.5875126 28.0867518,27.901712 27.8783872,28.1111782 C27.6700225,28.3206445 27.378312,28.4672709 27.0449286,28.4672709 C26.7115452,28.4672709 26.4198347,28.3415911 26.2114701,28.1111782 C26.0031054,27.901712 25.8780867,27.5875126 25.8780867,27.2733132 C25.8780867,26.9591138 26.0031054,26.6449144 26.2114701,26.4354481 C26.4198347,26.2259819 26.7115452,26.0793555 27.0449286,26.0793555 C27.378312,26.0793555 27.6700225,26.2259819 27.8783872,26.4354481 Z M24.5653894,27.2942598 C24.5653894,27.9854985 24.8362635,28.6348439 25.2946657,29.0747231 C25.7322314,29.5355488 26.3573253,29.807855 27.0449286,29.807855 C27.7325319,29.807855 28.3367894,29.5146022 28.7951916,29.0747231 C29.2535938,28.6138973 29.5244678,27.9854985 29.5244678,27.2942598 C29.5244678,26.6030211 29.2535938,25.827996 28.7951916,25.3671702 C28.3576258,24.9063444 27.7325319,24.7806647 27.0449286,24.7806647 C26.3573253,24.7806647 25.7530679,25.0739174 25.2946657,25.5137966 C24.8570999,25.9536757 24.5653894,26.5820745 24.5653894,27.2942598 Z" id="Shape" fill="#202945" fill-rule="nonzero"></path>
                        </g>
                    </g>
                </g>
            </g>
        </g>
    </g>
</svg>