<?xml version="1.0" encoding="UTF-8"?>
<svg width="40px" height="40px" viewBox="0 0 40 40" version="1.1" xmlns="http://www.w3.org/2000/svg" xmlns:xlink="http://www.w3.org/1999/xlink">
    <!-- Generator: sketchtool 56.2 (101010) - https://sketch.com -->
    <title>A06C9250-A1F1-4BC7-8EFB-52B47D8BCDFD</title>
    <desc>Created with sketchtool.</desc>
    <g id="Mockup" stroke="none" stroke-width="1" fill="none" fill-rule="evenodd">
        <g id="Prueba-tecnica-listado" transform="translate(-258.000000, -288.000000)">
            <g id="Group" transform="translate(222.000000, 101.000000)">
                <g id="Pedido-2" transform="translate(28.000000, 185.000000)">
                    <g id="icon/estadopedido/puntojeff" transform="translate(8.000000, 2.000000)">
                        <g id="Group-2">
                            <path d="M20,40 C8.96842105,40 0,31.0315789 0,20 C0,8.96842105 8.96842105,0 20,0 C31.0315789,0 40,8.96842105 40,20 C40,31.0105263 31.0315789,40 20,40 Z M20,1.26315789 C9.66315789,1.26315789 1.26315789,9.66315789 1.26315789,20 C1.26315789,30.3368421 9.66315789,38.7368421 20,38.7368421 C30.3368421,38.7368421 38.7368421,30.3368421 38.7368421,20 C38.7368421,9.66315789 30.3368421,1.26315789 20,1.26315789 Z" id="Shape" fill="#84DADE" fill-rule="nonzero"></path>
                            <g id="Group" transform="translate(9.600000, 9.600000)" fill="#202945" fill-rule="nonzero">
                                <path d="M19.6906667,0.865116279 L0.866666667,0.865116279 L0.866666667,19.5644444 L6.11866667,19.5644444 C6.38017599,19.5644444 6.63127017,19.667845 6.81651718,19.8519045 L10.2786667,23.2918607 L13.7408162,19.8519045 C13.9260632,19.667845 14.1771573,19.5644444 14.4386667,19.5644444 L19.6906667,19.5644444 L19.6906667,0.865116279 Z M20.5573333,0.43255814 L20.5573333,19.9970026 C20.5573333,20.2358978 20.3633234,20.4295607 20.124,20.4295607 L14.4386667,20.4295607 C14.4062305,20.4295607 14.3749912,20.4424251 14.3522185,20.4650518 L10.5843678,24.2087495 C10.4153048,24.3767289 10.1420286,24.3767289 9.97296549,24.2087495 L6.20511482,20.4650518 C6.18234212,20.4424251 6.15110284,20.4295607 6.11866667,20.4295607 L0.433333333,20.4295607 C0.194009942,20.4295607 0,20.2358978 0,19.9970026 L0,0.43255814 C0,0.193662876 0.194009942,0 0.433333333,0 L20.124,0 C20.3633234,0 20.5573333,0.193662876 20.5573333,0.43255814 Z" id="Shape-Copy-7"></path>
                                <path d="M15.7547665,6.30419391 C15.7547665,6.27022226 15.7477781,6.2566336 15.7477781,6.24304494 C15.7268129,6.15471865 15.6918708,6.0731867 15.6429519,6.0052434 C15.5730678,5.91691711 15.4892068,5.85576815 15.391369,5.81500217 C15.3773922,5.80820784 15.3564269,5.80141351 15.3424501,5.79461918 C15.3144964,5.78103052 15.3005196,5.78103052 15.2865428,5.78103052 C15.2446123,5.77423619 15.2376239,5.76744186 15.223647,5.76744186 L15.1607513,5.76744186 L15.0978556,5.76744186 C15.0559251,5.76744186 15.0419483,5.76744186 15.0349599,5.77423619 C15.0000178,5.78103052 14.9860409,5.78782485 14.9720641,5.79461918 C14.9441105,5.80820784 14.9301336,5.81500217 14.9091684,5.81500217 C14.8882031,5.8217965 14.8672379,5.82859083 14.8532611,5.83538516 C14.8392842,5.84217949 14.818319,5.85576815 14.8043422,5.86256248 C14.7973538,5.86935681 11.9041501,7.97559902 11.9041501,7.97559902 C11.6385904,8.17263458 11.5826831,8.54632271 11.7853471,8.80450724 C11.9880111,9.06269177 12.3723739,9.11704641 12.6379337,8.92001085 L14.531794,7.54076192 L14.531794,12.303587 L10.1850002,9.5722665 L5.83820635,12.303587 L5.83820635,7.54076192 L7.7390551,8.92680518 C8.00461485,9.12384074 8.38897765,9.0694861 8.59164167,8.81130157 C8.79430569,8.55311704 8.73839837,8.17942891 8.47283862,7.98239335 L5.60060025,5.87615114 C5.55866977,5.84897382 5.53770452,5.84217949 5.52372769,5.83538516 C5.50975087,5.82859083 5.48878562,5.8217965 5.47480879,5.81500217 C5.45384355,5.80820784 5.43986672,5.80141351 5.41890148,5.80141351 C5.39094782,5.78782485 5.37697099,5.78782485 5.36299416,5.78103052 C5.32805209,5.77423619 5.31407526,5.76744186 5.30708684,5.76744186 L5.24419111,5.76744186 L5.18129538,5.76744186 C5.1393649,5.76744186 5.13237648,5.76744186 5.11839965,5.77423619 C5.07646917,5.78103052 5.06249234,5.78782485 5.04851551,5.78782485 C5.02056185,5.80141351 4.99959661,5.80820784 4.98561978,5.81500217 C4.88778197,5.85576815 4.803921,5.91691711 4.73403685,6.0052434 C4.67812954,6.07998103 4.64318747,6.15471865 4.62921064,6.23625061 C4.62921064,6.2566336 4.62222222,6.27022226 4.62222222,6.28381092 L4.62222222,6.33816556 L4.62222222,13.4925947 L4.62222222,13.5401551 C4.62222222,13.5741267 4.62921064,13.5877154 4.62921064,13.601304 C4.65017588,13.6896303 4.68511795,13.7711623 4.73403685,13.8391056 C4.803921,13.9274318 4.88778197,13.9885808 4.98561978,14.0293468 C4.99959661,14.0361411 5.02056185,14.0429354 5.03453868,14.0497298 C5.06249234,14.0633184 5.07646917,14.0633184 5.09044599,14.0633184 C5.13237648,14.0701128 5.1393649,14.0769071 5.15334173,14.0769071 L5.21623746,14.0769071 L5.27913319,14.0769071 C5.32106367,14.0769071 5.3350405,14.0769071 5.34202892,14.0701128 C5.37697099,14.0633184 5.39094782,14.0565241 5.40492465,14.0497298 C5.43287831,14.0361411 5.44685514,14.0293468 5.46782038,14.0293468 C5.48878562,14.0225525 5.50975087,14.0157581 5.52372769,14.0089638 C5.53770452,14.0021695 5.55866977,13.9885808 5.5726466,13.9817865 C5.57963501,13.9749922 10.1919886,11.046636 10.1919886,11.046636 L14.7833769,13.9681978 C14.8253074,13.9953751 14.8462727,14.0021695 14.8602495,14.0089638 C14.8742263,14.0157581 14.8951916,14.0225525 14.9091684,14.0293468 C14.9301336,14.0361411 14.9441105,14.0429354 14.9650757,14.0429354 C14.9930294,14.0565241 15.0070062,14.0565241 15.020983,14.0633184 C15.0559251,14.0701128 15.0699019,14.0769071 15.0768903,14.0769071 L15.1397861,14.0769071 L15.2026818,14.0769071 C15.2446123,14.0769071 15.2516007,14.0769071 15.2655775,14.0701128 C15.307508,14.0633184 15.3214848,14.0565241 15.3354617,14.0565241 C15.3634153,14.0429354 15.3843806,14.0361411 15.3983574,14.0293468 C15.4961952,13.9885808 15.5800562,13.9274318 15.6499403,13.8391056 C15.7058476,13.7643679 15.7407897,13.6896303 15.7547665,13.6080983 C15.7547665,13.5877154 15.761755,13.5741267 15.761755,13.560538 L15.761755,13.5061834 L15.761755,6.35175422 C15.7547665,6.3245769 15.7547665,6.31098824 15.7547665,6.30419391 Z" id="Shape-Copy-8"></path>
                            </g>
                        </g>
                    </g>
                </g>
            </g>
        </g>
    </g>
</svg>